<svg width="448" height="512" viewBox="0 0 448 512" fill="none" xmlns="http://www.w3.org/2000/svg">
<g clip-path="url(#clip0)">
<path opacity="0.4" d="M447 73.14V118.86C447 159.14 346.67 192 223 192C99.33 192 -1 159.14 -1 118.86V73.14C-1 32.86 99.33 0 223 0C346.67 0 447 32.86 447 73.14Z" fill="#457A3B"/>
<path d="M-1 336V438.86C-1 479.14 99.33 512 223 512C346.67 512 447 479.14 447 438.86V336C398.87 369.14 310.79 384.57 223 384.57C135.21 384.57 47.12 369.14 -1 336ZM223 224.57C135.21 224.57 47.12 209.14 -1 176V278.86C-1 319.14 99.33 352 223 352C346.67 352 447 319.14 447 278.86V176C398.87 209.14 310.79 224.57 223 224.57Z" fill="#457A3B"/>
</g>
<defs>
<clipPath id="clip0">
<rect width="448" height="512" fill="white"/>
</clipPath>
</defs>
</svg>
